<svg width="24" height="20" viewBox="0 0 24 20" fill="none" xmlns="http://www.w3.org/2000/svg">
<path d="M7.23799 2.25122L7.23994 2.25119C8.92189 2.22936 10.4951 3.06779 11.4007 4.46693L11.4004 4.46707L11.4057 4.47417C11.6442 4.79922 12.1029 4.87089 12.4307 4.63587L12.4308 4.63585C12.4934 4.5909 12.5487 4.53638 12.5944 4.47413L12.5945 4.47423L12.5985 4.4682C14.1015 2.19662 17.1848 1.55821 19.4848 3.04447C20.8924 3.95403 21.7388 5.50425 21.736 7.16477V7.16502C21.736 8.31958 21.2369 9.4971 20.4453 10.6361C19.6546 11.7739 18.5804 12.8611 17.4509 13.8318C15.258 15.7165 12.8737 17.1474 12.001 17.6428C11.1276 17.1337 8.74267 15.6894 6.54912 13.8009C5.41951 12.8284 4.34528 11.742 3.55449 10.6088C2.76277 9.47429 2.26393 8.3055 2.26393 7.16508C2.26393 4.45292 4.4892 2.25121 7.23799 2.25122ZM16.7624 0.850421C14.942 0.840919 13.2082 1.60611 12.0007 2.94616C10.7995 1.5967 9.06048 0.829401 7.23706 0.850421C3.71117 0.850888 0.85 3.6762 0.85 7.16508C0.85 8.66742 1.51266 10.148 2.49454 11.519C3.4773 12.8913 4.78885 14.1666 6.10832 15.2616C8.72383 17.4321 11.3897 18.9099 11.6453 19.0459C11.861 19.1847 12.139 19.1847 12.3546 19.0459C12.6093 18.9108 15.2755 17.4534 17.8914 15.2928C19.211 14.2029 20.5227 12.9301 21.5056 11.5537C22.4877 10.1784 23.15 8.68765 23.15 7.16508C23.15 3.67604 20.2885 0.850633 16.7624 0.850421Z" fill="#7F8F93" stroke="#7F8F93" stroke-width="0.3"/>
</svg>
